<svg xmlns="http://www.w3.org/2000/svg" id="unicorns-of-the-sea" viewBox="0 0 1920 1080" width="1920" height="1080"><style>.st0{fill:#78a2b3}.st1{stroke:#ff00e6;stroke-linecap:round;stroke-linejoin:round}.st1,.st2,.st3,.st4,.st5,.st6,.st7{fill:none;stroke-width:12.37}.st2,.st3,.st4,.st5,.st6,.st7,.st8{stroke-linecap:round;stroke-linejoin:round}.st2{stroke:#9500ff}.st3{stroke:#0040ff}.st4{stroke:#2bff00}.st5{stroke:#fff700}.st6{stroke:#ff8000}.st7{stroke:red}.st8{fill:#78a2b3;stroke:#fff;stroke-width:12}.st9{fill:#fff}</style><path id="bg" d="M0 0h1920v1080H0V0z" class="st0"/><g id="rainbow"><path d="M186.8 1080c47-58.5 99-112.9 155.3-162.6 72.4-64.3 154.6-124.1 244.3-177.9 173.7-104.2 372.2-185 593.8-241.2s456.1-84.7 696.8-84.7c14.4 0 28.7.1 43 .3" class="st1"/><path d="M267.9 1080c36.7-42.2 76.1-81.9 118-119 69.4-61.7 148.4-119.2 234.8-170.9 168.2-100.9 362.1-179.6 576.1-233.9 216.2-54.8 445.1-82.6 680.2-82.6 14.4 0 28.7.1 43 .3" class="st2"/><path d="M351.7 1080c24.5-25.9 50.5-51 78-75.4 66.5-59 142.3-114.2 225.3-163.9 162.7-97.7 350.6-173.9 558.4-226.6 210.8-53.4 434.1-80.5 663.6-80.5 14.4 0 28.7.1 43 .3" class="st3"/><path d="M439 1080c11.3-10.7 22.7-21.3 34.4-31.7 63.7-56.5 136.3-109.3 215.9-157.1 157.3-94.3 339.2-168 540.7-219.1 205.4-52.1 423.1-78.5 647-78.5 14.4 0 28.7.1 43 .3" class="st4"/><path d="M530.9 1080c57.4-49.4 122.1-95.9 192.6-138.2 151.9-91 327.9-162.3 523.1-211.8 200-50.7 412.1-76.4 630.4-76.4 14.4 0 28.7.1 43 .3" class="st5"/><path d="M628.5 1080c41.4-31.6 84.6-60.8 129.3-87.6 146.4-87.7 316.5-156.5 505.4-204.5 194.6-49.3 401.1-74.3 613.8-74.3 14.4 0 28.7.1 43 .3" class="st6"/><path d="M733.8 1080c22.1-14.8 45-29.2 68.6-43.1C1079.2 874 1458.5 773.6 1877 773.6c14.4 0 28.7.1 43 .3" class="st7"/></g><g id="narwhal"><path d="M1200.8 381.5l17.1 33.2 16.3 33.7c28.2-9.9 61-2.8 98.3 21.3s56.7 56.9 58.1 98.6c1.4 41.7 10 79.8 25.9 114.2 31.6 68.9 85.3 116.1 161 141.8 5-7 12.7-12.4 23-16.2 20.7-7.2 44-1.9 69.9 15.8-1.8 8.1-6.3 15.6-13.3 22.4s-18.5 12-31.4 14.5l17.1 16.1c11.7 14.8 18.2 31.2 19.5 49.4-11.1 1.8-23.4.1-37-5.2-26.2-9.8-43-30.7-50.5-63-34-6.3-72.5-16.4-115.6-30.1-86.5-26.9-152.5-57.7-198.1-92.5l-26.9 32.4c-8.9-8.2-17.1-17.1-24.7-26.6-16.3-20.6-15.9-53.4-14-66.8-44-50.9-58.2-101.5-42.6-151.8 5.3-15.9 12.9-30.9 22.6-44.6l14.1-16.1c-.5-4.2-1.1-8.7-1.7-13.6-1.7-14.1-3.2-27.9-4.3-41.5-2.8-24.7-5.2-49.2-7.4-73.3l24.6 47.9z" class="st8"/><path id="narwhal-eye" d="M1228.5 568.6c-1.3 2.7-1.3 5.9.1 8.6.6 3 2.6 5.6 5.3 6.9 2.9 1.3 6.3 1.4 9.3.2 2.7-.9 5-3 6.2-5.6 1.4-2.8 1.7-6 .8-9-1.2-2.8-3.4-5.2-6.2-6.5-2.6-1.3-5.6-1.5-8.3-.5-3.1.9-5.7 3-7.2 5.9z" class="st9"/></g></svg>